<?xml version="1.0" standalone="no"?>
<!DOCTYPE svg PUBLIC "-//W3C//DTD SVG 20010904//EN"
 "http://www.w3.org/TR/2001/REC-SVG-20010904/DTD/svg10.dtd">
<svg version="1.0" xmlns="http://www.w3.org/2000/svg"
 width="260.000000pt" height="260.000000pt" viewBox="0 0 260.000000 260.000000"
 preserveAspectRatio="xMidYMid meet">
<metadata>
Created by potrace 1.14, written by Peter Selinger 2001-2017
</metadata>
<g transform="translate(0.000000,260.000000) scale(0.100000,-0.100000)"
fill="#000000" stroke="none">
<path d="M900 1255 l0 -525 228 0 c241 0 313 10 394 51 105 53 184 168 214
311 22 100 14 301 -14 378 -47 133 -114 214 -217 261 -85 40 -160 49 -397 49
l-208 0 0 -525z m491 302 c44 -18 95 -76 108 -124 14 -50 14 -307 0 -358 -16
-56 -44 -92 -92 -117 -36 -19 -59 -22 -162 -22 l-120 -1 -3 310 c-1 170 0 316
3 324 7 18 215 9 266 -12z"/>
</g>
</svg>
